<svg xmlns="http://www.w3.org/2000/svg" width="97" height="102" viewBox="0 0 97 102">
  <polygon fill="#CCCCCC" fill-rule="evenodd" stroke="#FFFFFF" stroke-width=".5" points="673.66 465.2 673.81 465.31 674.75 464.77 674.77 464.84 677.3 465.44 678.84 469.47 692.97 472.58 702.45 475.97 706.93 475.64 710.05 475.67 711.25 479.34 715.15 480.45 716.85 483.52 716.04 485.44 715.64 489.2 719.19 489.08 718.34 492.85 720.73 495.34 720.74 495.3 721.17 495.42 721.04 495.65 715.45 504.42 717.89 506.91 728.37 491.16 730.78 490.84 724.09 509.13 721.87 525.28 719.9 538.39 722.98 549.3 723.04 554.86 722.98 554.86 722.99 554.92 710.07 555.83 692.56 557.12 675.43 558.22 673.6 554.85 668.01 552.98 666.74 549.43 665.95 547.44 665.64 542.67 667.03 540.87 664.68 537.38 664.38 536.15 663.81 533.61 663.48 528.14 662.85 526.29 657.13 523.2 652.82 519.48 651.56 517.08 649.66 515.62 644.25 512.6 642.3 512.47 637.39 508.26 637.71 503.23 637.5 497.04 638.52 491.26 635 487.1 637.13 482.82 640.45 480.5 644.29 477.82 644.79 477.82 644.1 465 648.2 463.55 648.2 463.55 663.71 458" transform="rotate(4 6893.956 -8826.219)"/>
</svg>
